<svg xmlns="http://www.w3.org/2000/svg" viewBox="0 0 900 600">
  <!-- Saffron stripe -->
  <rect width="900" height="200" fill="#FF9933"/>
  
  <!-- White stripe -->
  <rect y="200" width="900" height="200" fill="#FFFFFF"/>
  
  <!-- Green stripe -->
  <rect y="400" width="900" height="200" fill="#138808"/>
  
  <!-- Ashoka Chakra (24 spokes wheel) -->
  <g transform="translate(450,300)">
    <!-- Outer circle -->
    <circle r="80" fill="none" stroke="#000080" stroke-width="3"/>
    
    <!-- Inner circle -->
    <circle r="10" fill="#000080"/>
    
    <!-- 24 spokes -->
    <g stroke="#000080" stroke-width="2">
      <line x1="0" y1="-80" x2="0" y2="-10"/>
      <line x1="20.7" y1="-76.2" x2="5.2" y2="-9.5"/>
      <line x1="39.4" y1="-64.7" x2="9.8" y2="-8.1"/>
      <line x1="55.5" y1="-46.4" x2="13.9" y2="-5.8"/>
      <line x1="67.1" y1="-23.5" x2="16.8" y2="-2.9"/>
      <line x1="73.9" y1="2.1" x2="18.5" y2="0.5"/>
      <line x1="76.2" y1="20.7" x2="19.0" y2="5.2"/>
      <line x1="64.7" y1="39.4" x2="16.2" y2="9.8"/>
      <line x1="46.4" y1="55.5" x2="11.6" y2="13.9"/>
      <line x1="23.5" y1="67.1" x2="5.9" y2="16.8"/>
      <line x1="-2.1" y1="73.9" x2="-0.5" y2="18.5"/>
      <line x1="-20.7" y1="76.2" x2="-5.2" y2="19.0"/>
      <line x1="-39.4" y1="64.7" x2="-9.8" y2="16.2"/>
      <line x1="-55.5" y1="46.4" x2="-13.9" y2="11.6"/>
      <line x1="-67.1" y1="23.5" x2="-16.8" y2="5.9"/>
      <line x1="-73.9" y1="-2.1" x2="-18.5" y2="-0.5"/>
      <line x1="-76.2" y1="-20.7" x2="-19.0" y2="-5.2"/>
      <line x1="-64.7" y1="-39.4" x2="-16.2" y2="-9.8"/>
      <line x1="-46.4" y1="-55.5" x2="-11.6" y2="-13.9"/>
      <line x1="-23.5" y1="-67.1" x2="-5.9" y2="-16.8"/>
      <line x1="2.1" y1="-73.9" x2="0.5" y2="-18.5"/>
      <line x1="76.2" y1="-20.7" x2="19.0" y2="-5.2"/>
      <line x1="67.1" y1="23.5" x2="16.8" y2="2.9"/>
      <line x1="39.4" y1="64.7" x2="9.8" y2="16.2"/>
    </g>
  </g>
</svg>